<?xml version="1.0" standalone="no"?>
<!DOCTYPE svg PUBLIC "-//W3C//DTD SVG 20010904//EN"
 "http://www.w3.org/TR/2001/REC-SVG-20010904/DTD/svg10.dtd">
<svg version="1.0" xmlns="http://www.w3.org/2000/svg"
 width="260.000000pt" height="260.000000pt" viewBox="0 0 260.000000 260.000000"
 preserveAspectRatio="xMidYMid meet">
<metadata>
Created by potrace 1.14, written by Peter Selinger 2001-2017
</metadata>
<g transform="translate(0.000000,260.000000) scale(0.100000,-0.100000)"
fill="#000000" stroke="none">
<path d="M380 1761 c-13 -9 -56 -48 -95 -88 -81 -83 -168 -240 -185 -333 -22
-123 -23 -146 -16 -400 3 -149 9 -221 21 -265 9 -33 18 -68 19 -78 1 -10 8
-22 15 -26 7 -5 13 -12 13 -17 1 -15 21 -57 41 -86 10 -16 16 -28 12 -28 -10
0 28 -54 65 -91 27 -27 88 -68 128 -85 1 0 5 -21 8 -45 10 -89 25 -184 30
-201 5 -17 55 -18 874 -18 819 0 869 1 874 18 9 29 15 73 21 167 4 50 13 99
20 110 7 11 32 31 56 43 88 46 194 233 214 377 7 46 10 59 18 73 5 6 4 12 -2
12 -7 0 -7 8 -1 24 5 13 6 26 3 29 -2 3 -6 52 -8 109 -3 114 -14 279 -21 318
-3 14 -8 44 -11 68 -3 23 -10 45 -14 48 -5 3 -9 16 -9 29 0 13 -3 25 -7 27 -5
2 -21 30 -38 62 -37 72 -154 194 -214 222 l-45 21 -23 -23 c-13 -13 -23 -26
-23 -29 0 -4 -9 -18 -20 -32 -11 -14 -20 -38 -20 -53 0 -41 -35 -134 -91 -245
-50 -97 -105 -234 -115 -285 -3 -14 -7 -32 -9 -40 -8 -27 -15 -84 -19 -155 -7
-112 -45 -256 -74 -280 -14 -11 -35 -30 -47 -42 -39 -39 -79 -23 -115 47 -21
39 -64 90 -77 90 -6 0 -14 8 -18 19 -4 14 -96 75 -107 71 -2 -1 -11 2 -22 6
-10 4 -21 3 -25 -2 -3 -5 -14 -10 -24 -10 -13 -2 -15 1 -7 11 8 9 6 14 -7 17
-24 6 -42 -1 -39 -15 1 -7 1 -9 -1 -4 -3 4 -11 7 -19 7 -8 0 -14 7 -14 15 0 8
-4 15 -10 15 -5 0 -7 -7 -4 -15 9 -23 -12 -18 -28 7 -11 17 -16 19 -23 8 -6
-9 -4 -11 5 -5 8 5 11 3 8 -6 -3 -8 -11 -13 -18 -11 -7 1 -17 -2 -24 -7 -6 -5
-28 -9 -49 -9 -50 0 -97 -20 -90 -38 3 -9 -1 -14 -12 -14 -9 0 -13 -5 -10 -10
3 -6 -1 -13 -9 -16 -8 -3 -18 -14 -21 -24 -3 -10 -21 -26 -41 -35 -19 -9 -32
-20 -29 -25 3 -4 -3 -7 -12 -5 -10 2 -21 4 -25 4 -5 1 -8 8 -8 16 0 8 -4 15
-8 15 -5 0 -9 6 -10 13 -1 15 -7 38 -15 57 -21 49 -38 110 -43 154 -4 28 -10
61 -15 74 -5 13 -9 34 -9 48 0 51 -39 153 -133 344 -74 151 -76 156 -97 264
-14 73 -23 95 -46 122 -27 30 -46 34 -74 15z m650 -991 c0 -5 -4 -10 -10 -10
-5 0 -10 5 -10 10 0 6 5 10 10 10 6 0 10 -4 10 -10z m523 -135 c23 -32 17 -32
-13 0 -13 14 -19 25 -14 25 5 0 17 -12 27 -25z"/>
<path d="M1200 860 c0 -5 5 -10 11 -10 5 0 7 5 4 10 -3 6 -8 10 -11 10 -2 0
-4 -4 -4 -10z"/>
<path d="M911 697 c-13 -21 -12 -21 5 -5 10 10 16 20 13 22 -3 3 -11 -5 -18
-17z"/>
</g>
</svg>
